<svg xmlns="http://www.w3.org/2000/svg" xml:space="preserve" width="2048" height="2048" style="shape-rendering:geometricPrecision;text-rendering:geometricPrecision;image-rendering:optimizeQuality;fill-rule:evenodd;clip-rule:evenodd"><defs><style>.fil0{fill:none}</style></defs><g id="Layer_x0020_1"><g id="_526164912"><path id="_526171128" class="fil0" d="M0 0h2048v2048H0z"/><path id="_526156200" class="fil0" d="M255.999 255.999h1536v1536h-1536z"/></g><g id="_526143576"><path id="_526167792" style="fill:#8e8e8f;fill-rule:nonzero" d="M586.236 1551.03 1693.41 353.841l19.48-21.065 21.07 19.487 42.35 39.161 21.06 19.481-19.49 21.072L609.641 1695.2l-20.351 22.01-21.105-21.11-297.451-297.45-20.389-20.39 20.389-20.39 40.783-40.78 20.391-20.39 20.389 20.39z"/><path id="_526163208" style="fill:#7d7d7d;fill-rule:nonzero" d="M586.236 1551.03 1693.41 353.841l19.48-21.065 21.07 19.487 42.35 39.161 21.06 19.481-19.49 21.072L609.641 1695.2l-20.351 22.01-21.105-21.11z"/></g></g></svg>